# xmcd
#
# Track frame offsets: 
#        150
#        20160
#        38456
#        56656
#        75256
#        90676
#        109667
#        128027
#        147807
#        163663
#        185960
#        201563
#        219879
#        234313
#        251028
#
# Disc length: 3572 seconds
#
# Revision: 0
# Processed by: cddbd v1.5.2PL0 Copyright (c) Steve Scherf et al.
# Submitted via: ExactAudioCopy v0.99pb4
#
DISCID=cc0df20f
DTITLE=Alabama - Southern Drawl - Deluxe Edition
DYEAR=2015
DGENRE=Country
TTITLE0=Southern Drawl
TTITLE1=Wasn't Through Lovin' You Yet
TTITLE2=This Ain't Just A Song
TTITLE3=As Long As There's Love
TTITLE4=Back To The Country
TTITLE5=Hillbilly Wins The Lotto Money
TTITLE6=Come Find Me
TTITLE7=No Bad Days
TTITLE8=One On One
TTITLE9=American Farmer
TTITLE10=It's About Time
TTITLE11=Footstompin' Music
TTITLE12=I Wann Be There
TTITLE13=Backwoods Boogie (Bonus)
TTITLE14=I've Got Some Lovin' (Bonus)
EXTD=
EXTT0=
EXTT1=
EXTT2=
EXTT3=
EXTT4=
EXTT5=
EXTT6=
EXTT7=
EXTT8=
EXTT9=
EXTT10=
EXTT11=
EXTT12=
EXTT13=
EXTT14=
PLAYORDER=
